# xmcd
#
# Track frame offsets:
# 150
# 23215
# 34083
# 45819
# 56516
# 77358
# 96639
# 108614
# 123255
# 140681
# 152618
# 166530
# 177940
# 193242
# 213016
# 235035
# 253862
# 276451
#
# Disc length: 3949 seconds
#
#
# Revision: 0
# Processed by: cddbd v1.5.2PL0 Copyright (c) Steve Scherf et al.
# Submitted via: FreeRIP 2.951 
#
DISCID=ef0f6b12
DTITLE=Petrúcio Amorim  - Na Boléia do Destino
DYEAR=2006
DGENRE=Forró
TTITLE0=Abertura - Anjo Querubim
TTITLE1=Cidade Grande
TTITLE2=Confidências
TTITLE3=Devagar
TTITLE4=Meu Cenário
TTITLE5=Deus do Barro
TTITLE6=Filho do Dono
TTITLE7=Meu Velho Ipojuca
TTITLE8=Tire o Pé do Chão
TTITLE9=Vida de Vaqueiro
TTITLE10=Anjo Malandrinho
TTITLE11=Feito Maluco
TTITLE12=Quando o Coração Quer
TTITLE13=Chorar Pra Quê
TTITLE14=Tareco e Mariola
TTITLE15=Eu Sou o Forró
TTITLE16=Dois Rubis
TTITLE17=Meninos do Sertão
EXTD=
EXTT0=
EXTT1=
EXTT2=
EXTT3=
EXTT4=
EXTT5=
EXTT6=
EXTT7=
EXTT8=
EXTT9=
EXTT10=
EXTT11=
EXTT12=
EXTT13=
EXTT14=
EXTT15=
EXTT16=
EXTT17=
PLAYORDER=
